# xmcd
#
# Track frame offsets:
# 150
# 12415
# 25444
# 42827
# 56537
# 72690
# 86858
# 103050
# 116110
# 130869
# 145955
# 159355
# 168732
# 182052
# 194275
#
# Disc length: 2752 seconds
#
# Revision: 1
# Processed by: cddbd v1.5.2PL0 Copyright (c) Steve Scherf et al.
# Submitted via: CedeCatalogueitor 2.6.0.6 http://personales.ya.com/cdcatalogueitor
#
DISCID=de0abe0f
DTITLE=Nortec Collective Presents: Bostic and Fussible - Tijuana Sound Machine
DYEAR=1900
DGENRE=
TTITLE0=The Clap
TTITLE1=Norteña Del Sur
TTITLE2=Brown Bike
TTITLE3=Tijuana Sound Machine
TTITLE4=Shake It Up
TTITLE5=Rosarito
TTITLE6=Aka 47
TTITLE7=Jacinto
TTITLE8=Mi Casita
TTITLE9=Mama Love Nortec
TTITLE10=Cetron
TTITLE11=Ciruela Electrica
TTITLE12=Reten
TTITLE13=Wanted
TTITLE14=Playbox
EXTD=
EXTT0=
EXTT1=
EXTT2=
EXTT3=
EXTT4=
EXTT5=
EXTT6=
EXTT7=
EXTT8=
EXTT9=
EXTT10=
EXTT11=
EXTT12=
EXTT13=
EXTT14=
PLAYORDER=
